<svg xmlns="http://www.w3.org/2000/svg" width="1080" height="400" viewBox="0 0 1080 400"><path d="M186 30 L36 120 L36 300 L186 390 L336 300 L336 120 Z" fill="#0088cc" /><path d="M186 30 L36 120 L186 210 L336 120 Z" fill="#0099dd" /><path d="M36 120 L36 300 L186 390 L186 210 Z" fill="#0077bb" /><path d="M186 210 L186 390 L336 300 L336 120 Z" fill="#0066aa" /><path d="M186 30 L186 210 M36 120 L186 210 L336 120" stroke="white" stroke-width="8" fill="none" /><path d="M450 120 C450 90, 470 70, 510 70 C550 70, 580 90, 580 130 C580 170, 550 190, 510 190 C470 190, 450 170, 450 140 Z M510 140 C530 140, 540 130, 540 110 C540 90, 530 80, 510 80 C490 80, 480 90, 480 110 C480 130, 490 140, 510 140 Z" fill="#222222" /><path d="M600 70 L640 70 L640 190 L600 190 Z" fill="#222222" /><path d="M670 70 L780 70 L780 100 L710 100 L710 115 L770 115 L770 145 L710 145 L710 160 L780 160 L780 190 L670 190 Z" fill="#222222" /><path d="M810 70 L920 70 L920 100 L850 100 L850 115 L910 115 L910 145 L850 145 L850 160 L920 160 L920 190 L810 190 Z" fill="#222222" /></svg>
